<svg xmlns="http://www.w3.org/2000/svg" xmlns:xlink="http://www.w3.org/1999/xlink" width="1024" zoomAndPan="magnify" viewBox="0 0 768 576" height="768" preserveAspectRatio="xMidYMid meet" version="1.0"><defs><g/><clipPath id="1e69263dc0"><path d="M 205.195312 99 L 401 99 L 401 288 L 205.195312 288 Z M 205.195312 99 " clip-rule="nonzero"/></clipPath><clipPath id="dfc2833ec0"><path d="M 236 93.175781 L 594.820312 93.175781 L 594.820312 482.800781 L 236 482.800781 Z M 236 93.175781 " clip-rule="nonzero"/></clipPath><clipPath id="eced8b8fa4"><path d="M 205.195312 287 L 401 287 L 401 403 L 205.195312 403 Z M 205.195312 287 " clip-rule="nonzero"/></clipPath><clipPath id="f4c5b18189"><path d="M 205.195312 287 L 401 287 L 401 288 L 205.195312 288 Z M 205.195312 287 " clip-rule="nonzero"/></clipPath><clipPath id="9f82242a1f"><path d="M 573 266 L 634 266 L 634 280 L 573 280 Z M 573 266 " clip-rule="nonzero"/></clipPath><clipPath id="0b7e74805b"><path d="M 593.425781 242.273438 L 638.585938 269.054688 L 617.164062 305.179688 L 572.003906 278.402344 Z M 593.425781 242.273438 " clip-rule="nonzero"/></clipPath><clipPath id="0f270c5f20"><path d="M 593.425781 242.273438 L 638.585938 269.054688 L 617.164062 305.179688 L 572.003906 278.402344 Z M 593.425781 242.273438 " clip-rule="nonzero"/></clipPath><clipPath id="93623ad7c0"><path d="M 616 260 L 635 260 L 635 283 L 616 283 Z M 616 260 " clip-rule="nonzero"/></clipPath><clipPath id="459a32499d"><path d="M 593.425781 242.273438 L 638.585938 269.054688 L 617.164062 305.179688 L 572.003906 278.402344 Z M 593.425781 242.273438 " clip-rule="nonzero"/></clipPath><clipPath id="0a1a5180d2"><path d="M 593.425781 242.273438 L 638.585938 269.054688 L 617.164062 305.179688 L 572.003906 278.402344 Z M 593.425781 242.273438 " clip-rule="nonzero"/></clipPath><clipPath id="091d41c5b0"><path d="M 182 349 L 234 349 L 234 386 L 182 386 Z M 182 349 " clip-rule="nonzero"/></clipPath><clipPath id="4da10b0156"><path d="M 234.878906 350.601562 L 214.175781 398.84375 L 175.578125 382.28125 L 196.28125 334.039062 Z M 234.878906 350.601562 " clip-rule="nonzero"/></clipPath><clipPath id="a3da5cd62b"><path d="M 196.175781 333.992188 L 175.46875 382.234375 L 214.066406 398.800781 L 234.769531 350.554688 Z M 196.175781 333.992188 " clip-rule="nonzero"/></clipPath><clipPath id="bef9049acf"><path d="M 181 365 L 201 365 L 201 386 L 181 386 Z M 181 365 " clip-rule="nonzero"/></clipPath><clipPath id="b3431ad63a"><path d="M 234.878906 350.601562 L 214.175781 398.84375 L 175.578125 382.28125 L 196.28125 334.039062 Z M 234.878906 350.601562 " clip-rule="nonzero"/></clipPath><clipPath id="460a0ea7c6"><path d="M 196.175781 333.992188 L 175.46875 382.234375 L 214.066406 398.800781 L 234.769531 350.554688 Z M 196.175781 333.992188 " clip-rule="nonzero"/></clipPath><clipPath id="bd997984d6"><path d="M 230 142 L 284 142 L 284 176 L 230 176 Z M 230 142 " clip-rule="nonzero"/></clipPath><clipPath id="038c1c256e"><path d="M 283.574219 175.515625 L 231.160156 178.460938 L 228.800781 136.527344 L 281.21875 133.578125 Z M 283.574219 175.515625 " clip-rule="nonzero"/></clipPath><clipPath id="5faba9abb3"><path d="M 281.210938 133.464844 L 228.792969 136.410156 L 231.152344 178.34375 L 283.570312 175.398438 Z M 281.210938 133.464844 " clip-rule="nonzero"/></clipPath><clipPath id="827a5c03f3"><path d="M 229 135 L 249 135 L 249 158 L 229 158 Z M 229 135 " clip-rule="nonzero"/></clipPath><clipPath id="484434fae4"><path d="M 283.574219 175.515625 L 231.160156 178.460938 L 228.800781 136.527344 L 281.21875 133.578125 Z M 283.574219 175.515625 " clip-rule="nonzero"/></clipPath><clipPath id="0e3c259bc8"><path d="M 281.210938 133.464844 L 228.792969 136.410156 L 231.152344 178.34375 L 283.570312 175.398438 Z M 281.210938 133.464844 " clip-rule="nonzero"/></clipPath></defs><g clip-path="url(#1e69263dc0)"><path fill="#209485" d="M 205.195312 287.988281 C 205.195312 285.335938 205.25 282.6875 205.359375 280.035156 C 205.464844 277.386719 205.628906 274.742188 205.84375 272.097656 C 206.0625 269.453125 206.332031 266.816406 206.65625 264.183594 C 206.980469 261.554688 207.355469 258.929688 207.789062 256.3125 C 208.21875 253.695312 208.703125 251.089844 209.242188 248.492188 C 209.78125 245.894531 210.371094 243.308594 211.011719 240.738281 C 211.65625 238.164062 212.351562 235.605469 213.097656 233.0625 C 213.847656 230.515625 214.648438 227.988281 215.496094 225.476562 C 216.347656 222.964844 217.25 220.472656 218.203125 218 C 219.15625 215.523438 220.160156 213.070312 221.210938 210.636719 C 222.265625 208.199219 223.367188 205.789062 224.519531 203.402344 C 225.667969 201.011719 226.871094 198.648438 228.117188 196.308594 C 229.367188 193.96875 230.660156 191.652344 232.003906 189.367188 C 233.347656 187.082031 234.734375 184.820312 236.167969 182.589844 C 237.605469 180.359375 239.082031 178.160156 240.609375 175.992188 C 242.132812 173.820312 243.703125 171.683594 245.3125 169.578125 C 246.925781 167.472656 248.578125 165.398438 250.277344 163.363281 C 251.972656 161.324219 253.710938 159.320312 255.488281 157.351562 C 257.265625 155.386719 259.085938 153.457031 260.941406 151.5625 C 262.796875 149.667969 264.691406 147.816406 266.625 146 C 268.558594 144.183594 270.527344 142.410156 272.535156 140.671875 C 274.539062 138.9375 276.578125 137.246094 278.652344 135.59375 C 280.726562 133.941406 282.835938 132.332031 284.976562 130.765625 C 287.117188 129.199219 289.285156 127.679688 291.488281 126.199219 C 293.691406 124.722656 295.921875 123.292969 298.183594 121.90625 C 300.445312 120.519531 302.734375 119.179688 305.050781 117.886719 C 307.363281 116.59375 309.707031 115.351562 312.070312 114.152344 C 314.4375 112.957031 316.828125 111.808594 319.242188 110.707031 C 321.65625 109.609375 324.089844 108.558594 326.546875 107.558594 C 329 106.558594 331.476562 105.609375 333.972656 104.710938 C 336.46875 103.8125 338.980469 102.964844 341.507812 102.167969 C 344.039062 101.371094 346.582031 100.628906 349.144531 99.933594 L 400.007812 287.988281 Z M 205.195312 287.988281 " fill-opacity="1" fill-rule="nonzero"/></g><g clip-path="url(#dfc2833ec0)"><path fill="#5baea5" d="M 339.808594 102.710938 C 342.667969 101.78125 345.550781 100.917969 348.453125 100.121094 C 351.355469 99.324219 354.273438 98.597656 357.210938 97.9375 C 360.148438 97.273438 363.097656 96.683594 366.058594 96.15625 C 369.023438 95.632812 371.996094 95.179688 374.980469 94.792969 C 377.964844 94.40625 380.957031 94.085938 383.957031 93.839844 C 386.957031 93.589844 389.960938 93.414062 392.96875 93.304688 C 395.976562 93.195312 398.984375 93.15625 401.992188 93.1875 C 405.003906 93.21875 408.007812 93.316406 411.015625 93.488281 C 414.019531 93.660156 417.019531 93.898438 420.011719 94.207031 C 423.003906 94.515625 425.988281 94.894531 428.964844 95.339844 C 431.941406 95.789062 434.90625 96.304688 437.859375 96.890625 C 440.808594 97.472656 443.746094 98.128906 446.667969 98.847656 C 449.589844 99.570312 452.496094 100.355469 455.378906 101.210938 C 458.265625 102.066406 461.128906 102.988281 463.972656 103.976562 C 466.8125 104.964844 469.632812 106.019531 472.425781 107.136719 C 475.21875 108.257812 477.984375 109.4375 480.726562 110.6875 C 483.464844 111.933594 486.171875 113.242188 488.851562 114.613281 C 491.53125 115.988281 494.175781 117.421875 496.785156 118.917969 C 499.398438 120.410156 501.972656 121.964844 504.515625 123.582031 C 507.054688 125.195312 509.554688 126.867188 512.015625 128.597656 C 514.480469 130.328125 516.898438 132.113281 519.28125 133.957031 C 521.660156 135.800781 523.996094 137.695312 526.285156 139.648438 C 528.578125 141.597656 530.824219 143.601562 533.023438 145.65625 C 535.21875 147.710938 537.371094 149.816406 539.472656 151.96875 C 541.574219 154.125 543.625 156.324219 545.621094 158.574219 C 547.621094 160.824219 549.566406 163.117188 551.460938 165.457031 C 553.351562 167.796875 555.191406 170.179688 556.972656 172.605469 C 558.753906 175.03125 560.480469 177.496094 562.148438 180 C 563.816406 182.503906 565.425781 185.046875 566.976562 187.625 C 568.527344 190.203125 570.019531 192.820312 571.445312 195.46875 C 572.875 198.117188 574.242188 200.796875 575.546875 203.507812 C 576.855469 206.21875 578.09375 208.960938 579.273438 211.730469 C 580.453125 214.5 581.566406 217.292969 582.613281 220.113281 C 583.660156 222.933594 584.644531 225.777344 585.5625 228.644531 C 586.476562 231.511719 587.328125 234.398438 588.109375 237.304688 C 588.894531 240.210938 589.609375 243.132812 590.257812 246.070312 C 590.902344 249.011719 591.484375 251.960938 591.992188 254.929688 C 592.503906 257.894531 592.945312 260.871094 593.320312 263.855469 C 593.691406 266.84375 593.996094 269.835938 594.230469 272.835938 C 594.464844 275.835938 594.628906 278.839844 594.722656 281.847656 C 594.816406 284.855469 594.84375 287.863281 594.796875 290.875 C 594.753906 293.882812 594.640625 296.890625 594.457031 299.894531 C 594.273438 302.898438 594.019531 305.894531 593.695312 308.886719 C 593.371094 311.878906 592.980469 314.863281 592.519531 317.835938 C 592.058594 320.808594 591.527344 323.773438 590.929688 326.722656 C 590.332031 329.671875 589.664062 332.605469 588.933594 335.523438 C 588.199219 338.441406 587.394531 341.339844 586.527344 344.222656 C 585.660156 347.105469 584.722656 349.964844 583.722656 352.800781 C 582.722656 355.640625 581.65625 358.453125 580.523438 361.242188 C 579.390625 364.03125 578.195312 366.792969 576.9375 369.523438 C 575.675781 372.257812 574.355469 374.960938 572.96875 377.632812 C 571.585938 380.304688 570.140625 382.941406 568.632812 385.546875 C 567.125 388.152344 565.558594 390.722656 563.933594 393.253906 C 562.304688 395.785156 560.621094 398.277344 558.878906 400.734375 C 557.140625 403.1875 555.339844 405.601562 553.488281 407.972656 C 551.632812 410.34375 549.726562 412.667969 547.765625 414.953125 C 545.804688 417.234375 543.789062 419.46875 541.726562 421.660156 C 539.660156 423.847656 537.546875 425.988281 535.382812 428.078125 C 533.21875 430.171875 531.007812 432.210938 528.75 434.199219 C 526.488281 436.1875 524.1875 438.125 521.835938 440.007812 C 519.488281 441.886719 517.097656 443.714844 514.664062 445.484375 C 512.234375 447.257812 509.761719 448.972656 507.246094 450.628906 C 504.734375 452.285156 502.1875 453.882812 499.597656 455.421875 C 497.011719 456.960938 494.390625 458.4375 491.738281 459.855469 C 489.082031 461.269531 486.394531 462.625 483.679688 463.917969 C 480.960938 465.210938 478.214844 466.441406 475.4375 467.605469 C 472.664062 468.769531 469.863281 469.871094 467.039062 470.90625 C 464.210938 471.941406 461.363281 472.910156 458.492188 473.816406 C 455.625 474.71875 452.734375 475.554688 449.824219 476.324219 C 446.914062 477.09375 443.988281 477.796875 441.046875 478.429688 C 438.105469 479.0625 435.148438 479.628906 432.183594 480.125 C 429.214844 480.621094 426.234375 481.050781 423.246094 481.410156 C 420.261719 481.769531 417.265625 482.058594 414.265625 482.277344 C 411.261719 482.5 408.257812 482.648438 405.25 482.730469 C 402.242188 482.8125 399.230469 482.824219 396.222656 482.765625 C 393.214844 482.707031 390.207031 482.578125 387.207031 482.378906 C 384.203125 482.183594 381.207031 481.914062 378.214844 481.578125 C 375.226562 481.242188 372.242188 480.835938 369.273438 480.359375 C 366.300781 479.886719 363.339844 479.34375 360.394531 478.730469 C 357.449219 478.121094 354.515625 477.4375 351.601562 476.691406 C 348.6875 475.945312 345.789062 475.128906 342.914062 474.246094 C 340.035156 473.363281 337.179688 472.417969 334.347656 471.402344 C 331.515625 470.386719 328.707031 469.308594 325.921875 468.164062 C 323.140625 467.019531 320.382812 465.8125 317.65625 464.539062 C 314.929688 463.265625 312.230469 461.933594 309.566406 460.535156 C 306.902344 459.136719 304.269531 457.679688 301.671875 456.160156 C 299.074219 454.640625 296.511719 453.0625 293.988281 451.425781 C 291.460938 449.789062 288.976562 448.09375 286.53125 446.339844 C 284.085938 444.585938 281.679688 442.777344 279.316406 440.914062 C 276.957031 439.050781 274.636719 437.128906 272.363281 435.160156 C 270.089844 433.1875 267.863281 431.164062 265.683594 429.089844 C 263.503906 427.015625 261.375 424.890625 259.292969 422.714844 C 257.210938 420.542969 255.183594 418.320312 253.203125 416.054688 C 251.226562 413.785156 249.300781 411.472656 247.429688 409.117188 C 245.558594 406.757812 243.742188 404.359375 241.984375 401.917969 C 240.222656 399.476562 238.519531 396.996094 236.875 394.476562 L 400.007812 287.988281 Z M 339.808594 102.710938 " fill-opacity="1" fill-rule="nonzero"/></g><g clip-path="url(#eced8b8fa4)"><path fill="#89c9c4" d="M 242.402344 402.496094 C 239.402344 398.367188 236.570312 394.128906 233.902344 389.777344 C 231.238281 385.425781 228.746094 380.976562 226.429688 376.429688 C 224.113281 371.882812 221.976562 367.253906 220.023438 362.539062 C 218.070312 357.824219 216.308594 353.042969 214.730469 348.1875 C 213.152344 343.335938 211.769531 338.429688 210.578125 333.46875 C 209.386719 328.507812 208.390625 323.511719 207.59375 318.472656 C 206.796875 313.433594 206.195312 308.371094 205.796875 303.285156 C 205.394531 298.203125 205.195312 293.109375 205.195312 288.007812 L 400.007812 287.988281 Z M 242.402344 402.496094 " fill-opacity="1" fill-rule="nonzero"/></g><g clip-path="url(#f4c5b18189)"><path fill="#b7e4e2" d="M 205.195312 287.988281 C 205.195312 287.996094 205.195312 287.988281 205.195312 287.96875 L 400.007812 287.988281 Z M 205.195312 287.988281 " fill-opacity="1" fill-rule="nonzero"/></g><g fill="#209485" fill-opacity="1"><g transform="translate(648.353637, 283.315087)"><g><path d="M 1.34375 -16.171875 L 12.296875 -16.171875 L 12.296875 -14.421875 L 4.8125 0 L 2.296875 0 L 9.75 -14.25 L 1.34375 -14.25 Z M 1.34375 -16.171875 "/></g></g></g><g fill="#209485" fill-opacity="1"><g transform="translate(661.980684, 283.315087)"><g><path d="M 6.8125 0.1875 C 4.9375 0.1875 3.503906 -0.515625 2.515625 -1.921875 C 1.535156 -3.335938 1.046875 -5.394531 1.046875 -8.09375 C 1.046875 -10.78125 1.535156 -12.828125 2.515625 -14.234375 C 3.503906 -15.648438 4.9375 -16.359375 6.8125 -16.359375 C 8.6875 -16.359375 10.117188 -15.65625 11.109375 -14.25 C 12.097656 -12.851562 12.59375 -10.804688 12.59375 -8.109375 C 12.59375 -5.398438 12.097656 -3.335938 11.109375 -1.921875 C 10.117188 -0.515625 8.6875 0.1875 6.8125 0.1875 Z M 6.8125 -1.703125 C 7.976562 -1.703125 8.835938 -2.21875 9.390625 -3.25 C 9.941406 -4.289062 10.21875 -5.910156 10.21875 -8.109375 C 10.21875 -10.304688 9.945312 -11.910156 9.40625 -12.921875 C 8.863281 -13.941406 8 -14.453125 6.8125 -14.453125 C 5.644531 -14.453125 4.785156 -13.9375 4.234375 -12.90625 C 3.679688 -11.882812 3.40625 -10.285156 3.40625 -8.109375 C 3.40625 -5.910156 3.679688 -4.289062 4.234375 -3.25 C 4.785156 -2.21875 5.644531 -1.703125 6.8125 -1.703125 Z M 6.8125 -1.703125 "/></g></g></g><g fill="#209485" fill-opacity="1"><g transform="translate(675.607732, 283.315087)"><g><path d="M 5.109375 -6.5 C 3.867188 -6.5 2.894531 -6.914062 2.1875 -7.75 C 1.488281 -8.59375 1.140625 -9.828125 1.140625 -11.453125 C 1.140625 -13.066406 1.488281 -14.289062 2.1875 -15.125 C 2.894531 -15.957031 3.867188 -16.375 5.109375 -16.375 C 6.367188 -16.375 7.347656 -15.957031 8.046875 -15.125 C 8.753906 -14.289062 9.109375 -13.066406 9.109375 -11.453125 C 9.109375 -9.828125 8.753906 -8.59375 8.046875 -7.75 C 7.347656 -6.914062 6.367188 -6.5 5.109375 -6.5 Z M 7.140625 0 L 5 0 L 14.359375 -16.171875 L 16.5 -16.171875 Z M 5.109375 -8.046875 C 5.796875 -8.046875 6.296875 -8.3125 6.609375 -8.84375 C 6.929688 -9.382812 7.09375 -10.253906 7.09375 -11.453125 C 7.09375 -12.617188 6.929688 -13.46875 6.609375 -14 C 6.296875 -14.539062 5.796875 -14.8125 5.109375 -14.8125 C 4.441406 -14.8125 3.945312 -14.539062 3.625 -14 C 3.3125 -13.46875 3.15625 -12.617188 3.15625 -11.453125 C 3.15625 -10.253906 3.3125 -9.382812 3.625 -8.84375 C 3.945312 -8.3125 4.441406 -8.046875 5.109375 -8.046875 Z M 16.375 0.15625 C 15.125 0.15625 14.144531 -0.257812 13.4375 -1.09375 C 12.726562 -1.9375 12.375 -3.171875 12.375 -4.796875 C 12.375 -6.410156 12.726562 -7.632812 13.4375 -8.46875 C 14.144531 -9.300781 15.125 -9.71875 16.375 -9.71875 C 17.632812 -9.71875 18.613281 -9.300781 19.3125 -8.46875 C 20.007812 -7.632812 20.359375 -6.410156 20.359375 -4.796875 C 20.359375 -3.171875 20.007812 -1.9375 19.3125 -1.09375 C 18.613281 -0.257812 17.632812 0.15625 16.375 0.15625 Z M 16.375 -1.40625 C 17.0625 -1.40625 17.5625 -1.671875 17.875 -2.203125 C 18.195312 -2.742188 18.359375 -3.609375 18.359375 -4.796875 C 18.359375 -5.960938 18.191406 -6.8125 17.859375 -7.34375 C 17.535156 -7.882812 17.039062 -8.15625 16.375 -8.15625 C 15.695312 -8.15625 15.195312 -7.882812 14.875 -7.34375 C 14.5625 -6.8125 14.40625 -5.960938 14.40625 -4.796875 C 14.40625 -3.609375 14.5625 -2.742188 14.875 -2.203125 C 15.195312 -1.671875 15.695312 -1.40625 16.375 -1.40625 Z M 16.375 -1.40625 "/></g></g></g><g fill="#209485" fill-opacity="1"><g transform="translate(648.353637, 310.216062)"><g><path d="M 5.75 0 L 5.75 -14.21875 L 0.265625 -14.21875 L 0.265625 -16.171875 L 13.578125 -16.171875 L 13.578125 -14.21875 L 8.109375 -14.21875 L 8.109375 0 Z M 5.75 0 "/></g></g></g><g fill="#209485" fill-opacity="1"><g transform="translate(662.207801, 310.216062)"><g><path d="M 11.453125 -5.671875 L 3.265625 -5.671875 C 3.347656 -2.992188 4.566406 -1.65625 6.921875 -1.65625 C 8.242188 -1.65625 9.453125 -2.085938 10.546875 -2.953125 L 11.25 -1.3125 C 10.726562 -0.863281 10.070312 -0.503906 9.28125 -0.234375 C 8.488281 0.0234375 7.691406 0.15625 6.890625 0.15625 C 5.054688 0.15625 3.613281 -0.367188 2.5625 -1.421875 C 1.519531 -2.472656 1 -3.914062 1 -5.75 C 1 -6.914062 1.226562 -7.953125 1.6875 -8.859375 C 2.15625 -9.765625 2.804688 -10.46875 3.640625 -10.96875 C 4.472656 -11.46875 5.414062 -11.71875 6.46875 -11.71875 C 8.019531 -11.71875 9.238281 -11.21875 10.125 -10.21875 C 11.007812 -9.21875 11.453125 -7.832031 11.453125 -6.0625 Z M 6.515625 -10.015625 C 5.648438 -10.015625 4.945312 -9.753906 4.40625 -9.234375 C 3.863281 -8.722656 3.515625 -7.992188 3.359375 -7.046875 L 9.421875 -7.046875 C 9.335938 -8.015625 9.046875 -8.75 8.546875 -9.25 C 8.046875 -9.757812 7.367188 -10.015625 6.515625 -10.015625 Z M 6.515625 -10.015625 "/></g></g></g><g fill="#209485" fill-opacity="1"><g transform="translate(674.608414, 310.216062)"><g><path d="M 5.671875 0.15625 C 3.679688 0.15625 2.109375 -0.328125 0.953125 -1.296875 L 1.640625 -2.953125 C 2.835938 -2.046875 4.207031 -1.59375 5.75 -1.59375 C 6.53125 -1.59375 7.125 -1.722656 7.53125 -1.984375 C 7.945312 -2.253906 8.15625 -2.628906 8.15625 -3.109375 C 8.15625 -3.515625 8.015625 -3.835938 7.734375 -4.078125 C 7.453125 -4.316406 6.976562 -4.519531 6.3125 -4.6875 L 4.40625 -5.140625 C 3.40625 -5.347656 2.644531 -5.71875 2.125 -6.25 C 1.601562 -6.789062 1.34375 -7.460938 1.34375 -8.265625 C 1.34375 -9.296875 1.753906 -10.128906 2.578125 -10.765625 C 3.398438 -11.398438 4.492188 -11.71875 5.859375 -11.71875 C 6.679688 -11.71875 7.457031 -11.585938 8.1875 -11.328125 C 8.925781 -11.078125 9.550781 -10.71875 10.0625 -10.25 L 9.359375 -8.640625 C 8.253906 -9.515625 7.085938 -9.953125 5.859375 -9.953125 C 5.117188 -9.953125 4.539062 -9.8125 4.125 -9.53125 C 3.71875 -9.25 3.515625 -8.859375 3.515625 -8.359375 C 3.515625 -7.960938 3.644531 -7.644531 3.90625 -7.40625 C 4.164062 -7.164062 4.578125 -6.976562 5.140625 -6.84375 L 7.09375 -6.359375 C 8.175781 -6.117188 8.976562 -5.738281 9.5 -5.21875 C 10.03125 -4.695312 10.296875 -4.019531 10.296875 -3.1875 C 10.296875 -2.15625 9.878906 -1.335938 9.046875 -0.734375 C 8.222656 -0.140625 7.097656 0.15625 5.671875 0.15625 Z M 5.671875 0.15625 "/></g></g></g><g fill="#209485" fill-opacity="1"><g transform="translate(685.918856, 310.216062)"><g><path d="M 4.65625 -9.671875 L 4.65625 -3.9375 C 4.65625 -3.144531 4.820312 -2.582031 5.15625 -2.25 C 5.5 -1.925781 5.976562 -1.765625 6.59375 -1.765625 C 6.976562 -1.765625 7.378906 -1.828125 7.796875 -1.953125 L 7.796875 -0.09375 C 7.296875 0.0703125 6.726562 0.15625 6.09375 0.15625 C 4.90625 0.15625 3.984375 -0.175781 3.328125 -0.84375 C 2.679688 -1.507812 2.359375 -2.476562 2.359375 -3.75 L 2.359375 -9.671875 L 0.140625 -9.671875 L 0.140625 -11.453125 L 2.359375 -11.453125 L 2.359375 -14.3125 L 4.65625 -15.109375 L 4.65625 -11.453125 L 7.8125 -11.453125 L 7.8125 -9.671875 Z M 4.65625 -9.671875 "/></g></g></g><g fill="#209485" fill-opacity="1"><g transform="translate(694.163218, 310.216062)"><g><path d="M 12.15625 -16.71875 L 12.15625 0 L 9.875 0 L 9.875 -1.953125 C 9.539062 -1.273438 9.046875 -0.753906 8.390625 -0.390625 C 7.734375 -0.0234375 6.96875 0.15625 6.09375 0.15625 C 5.101562 0.15625 4.222656 -0.09375 3.453125 -0.59375 C 2.679688 -1.09375 2.078125 -1.789062 1.640625 -2.6875 C 1.210938 -3.59375 1 -4.632812 1 -5.8125 C 1 -7 1.207031 -8.035156 1.625 -8.921875 C 2.050781 -9.816406 2.644531 -10.503906 3.40625 -10.984375 C 4.175781 -11.472656 5.070312 -11.71875 6.09375 -11.71875 C 6.957031 -11.71875 7.71875 -11.535156 8.375 -11.171875 C 9.03125 -10.804688 9.523438 -10.289062 9.859375 -9.625 L 9.859375 -16.71875 Z M 6.609375 -1.65625 C 7.648438 -1.65625 8.453125 -2.015625 9.015625 -2.734375 C 9.585938 -3.453125 9.875 -4.460938 9.875 -5.765625 C 9.875 -7.066406 9.585938 -8.078125 9.015625 -8.796875 C 8.453125 -9.515625 7.660156 -9.875 6.640625 -9.875 C 5.585938 -9.875 4.769531 -9.519531 4.1875 -8.8125 C 3.601562 -8.101562 3.3125 -7.101562 3.3125 -5.8125 C 3.3125 -4.507812 3.601562 -3.488281 4.1875 -2.75 C 4.769531 -2.019531 5.578125 -1.65625 6.609375 -1.65625 Z M 6.609375 -1.65625 "/></g></g></g><g fill="#209485" fill-opacity="1"><g transform="translate(707.994669, 310.216062)"><g><path d="M 12.15625 -11.453125 L 12.15625 0 L 9.875 0 L 9.875 -1.953125 C 9.539062 -1.273438 9.046875 -0.753906 8.390625 -0.390625 C 7.734375 -0.0234375 6.96875 0.15625 6.09375 0.15625 C 5.070312 0.15625 4.175781 -0.0820312 3.40625 -0.5625 C 2.644531 -1.050781 2.050781 -1.738281 1.625 -2.625 C 1.207031 -3.507812 1 -4.539062 1 -5.71875 C 1 -6.90625 1.210938 -7.953125 1.640625 -8.859375 C 2.078125 -9.765625 2.679688 -10.46875 3.453125 -10.96875 C 4.222656 -11.46875 5.101562 -11.71875 6.09375 -11.71875 C 6.96875 -11.71875 7.726562 -11.53125 8.375 -11.15625 C 9.03125 -10.789062 9.53125 -10.269531 9.875 -9.59375 L 9.875 -11.453125 Z M 6.640625 -1.65625 C 7.660156 -1.65625 8.453125 -2.015625 9.015625 -2.734375 C 9.585938 -3.453125 9.875 -4.460938 9.875 -5.765625 C 9.875 -7.085938 9.585938 -8.101562 9.015625 -8.8125 C 8.453125 -9.519531 7.648438 -9.875 6.609375 -9.875 C 5.578125 -9.875 4.769531 -9.503906 4.1875 -8.765625 C 3.601562 -8.035156 3.3125 -7.019531 3.3125 -5.71875 C 3.3125 -4.4375 3.601562 -3.4375 4.1875 -2.71875 C 4.769531 -2.007812 5.585938 -1.65625 6.640625 -1.65625 Z M 6.640625 -1.65625 "/></g></g></g><g fill="#209485" fill-opacity="1"><g transform="translate(721.82612, 310.216062)"><g><path d="M 4.65625 -9.671875 L 4.65625 -3.9375 C 4.65625 -3.144531 4.820312 -2.582031 5.15625 -2.25 C 5.5 -1.925781 5.976562 -1.765625 6.59375 -1.765625 C 6.976562 -1.765625 7.378906 -1.828125 7.796875 -1.953125 L 7.796875 -0.09375 C 7.296875 0.0703125 6.726562 0.15625 6.09375 0.15625 C 4.90625 0.15625 3.984375 -0.175781 3.328125 -0.84375 C 2.679688 -1.507812 2.359375 -2.476562 2.359375 -3.75 L 2.359375 -9.671875 L 0.140625 -9.671875 L 0.140625 -11.453125 L 2.359375 -11.453125 L 2.359375 -14.3125 L 4.65625 -15.109375 L 4.65625 -11.453125 L 7.8125 -11.453125 L 7.8125 -9.671875 Z M 4.65625 -9.671875 "/></g></g></g><g fill="#209485" fill-opacity="1"><g transform="translate(730.070482, 310.216062)"><g><path d="M 11.453125 -5.671875 L 3.265625 -5.671875 C 3.347656 -2.992188 4.566406 -1.65625 6.921875 -1.65625 C 8.242188 -1.65625 9.453125 -2.085938 10.546875 -2.953125 L 11.25 -1.3125 C 10.726562 -0.863281 10.070312 -0.503906 9.28125 -0.234375 C 8.488281 0.0234375 7.691406 0.15625 6.890625 0.15625 C 5.054688 0.15625 3.613281 -0.367188 2.5625 -1.421875 C 1.519531 -2.472656 1 -3.914062 1 -5.75 C 1 -6.914062 1.226562 -7.953125 1.6875 -8.859375 C 2.15625 -9.765625 2.804688 -10.46875 3.640625 -10.96875 C 4.472656 -11.46875 5.414062 -11.71875 6.46875 -11.71875 C 8.019531 -11.71875 9.238281 -11.21875 10.125 -10.21875 C 11.007812 -9.21875 11.453125 -7.832031 11.453125 -6.0625 Z M 6.515625 -10.015625 C 5.648438 -10.015625 4.945312 -9.753906 4.40625 -9.234375 C 3.863281 -8.722656 3.515625 -7.992188 3.359375 -7.046875 L 9.421875 -7.046875 C 9.335938 -8.015625 9.046875 -8.75 8.546875 -9.25 C 8.046875 -9.757812 7.367188 -10.015625 6.515625 -10.015625 Z M 6.515625 -10.015625 "/></g></g></g><g fill="#209485" fill-opacity="1"><g transform="translate(742.471095, 310.216062)"><g><path d="M 7.765625 -11.71875 C 10.503906 -11.71875 11.875 -10.191406 11.875 -7.140625 L 11.875 0 L 9.59375 0 L 9.59375 -7 C 9.59375 -8 9.394531 -8.722656 9 -9.171875 C 8.613281 -9.628906 8 -9.859375 7.15625 -9.859375 C 6.1875 -9.859375 5.410156 -9.554688 4.828125 -8.953125 C 4.242188 -8.347656 3.953125 -7.535156 3.953125 -6.515625 L 3.953125 0 L 1.6875 0 L 1.6875 -8.21875 C 1.6875 -9.414062 1.625 -10.492188 1.5 -11.453125 L 3.640625 -11.453125 L 3.84375 -9.46875 C 4.207031 -10.195312 4.734375 -10.753906 5.421875 -11.140625 C 6.109375 -11.523438 6.890625 -11.71875 7.765625 -11.71875 Z M 7.765625 -11.71875 "/></g></g></g><g fill="#209485" fill-opacity="1"><g transform="translate(133.871399, 414.018196)"><g><path d="M 8.65625 -1.9375 L 12.203125 -1.9375 L 12.203125 0 L 2.75 0 L 2.75 -1.9375 L 6.296875 -1.9375 L 6.296875 -13.375 L 3 -11.34375 L 3 -13.5 L 7.296875 -16.171875 L 8.65625 -16.171875 Z M 8.65625 -1.9375 "/></g></g></g><g fill="#209485" fill-opacity="1"><g transform="translate(147.498447, 414.018196)"><g><path d="M 6.8125 0.1875 C 4.9375 0.1875 3.503906 -0.515625 2.515625 -1.921875 C 1.535156 -3.335938 1.046875 -5.394531 1.046875 -8.09375 C 1.046875 -10.78125 1.535156 -12.828125 2.515625 -14.234375 C 3.503906 -15.648438 4.9375 -16.359375 6.8125 -16.359375 C 8.6875 -16.359375 10.117188 -15.65625 11.109375 -14.25 C 12.097656 -12.851562 12.59375 -10.804688 12.59375 -8.109375 C 12.59375 -5.398438 12.097656 -3.335938 11.109375 -1.921875 C 10.117188 -0.515625 8.6875 0.1875 6.8125 0.1875 Z M 6.8125 -1.703125 C 7.976562 -1.703125 8.835938 -2.21875 9.390625 -3.25 C 9.941406 -4.289062 10.21875 -5.910156 10.21875 -8.109375 C 10.21875 -10.304688 9.945312 -11.910156 9.40625 -12.921875 C 8.863281 -13.941406 8 -14.453125 6.8125 -14.453125 C 5.644531 -14.453125 4.785156 -13.9375 4.234375 -12.90625 C 3.679688 -11.882812 3.40625 -10.285156 3.40625 -8.109375 C 3.40625 -5.910156 3.679688 -4.289062 4.234375 -3.25 C 4.785156 -2.21875 5.644531 -1.703125 6.8125 -1.703125 Z M 6.8125 -1.703125 "/></g></g></g><g fill="#209485" fill-opacity="1"><g transform="translate(161.125494, 414.018196)"><g><path d="M 5.109375 -6.5 C 3.867188 -6.5 2.894531 -6.914062 2.1875 -7.75 C 1.488281 -8.59375 1.140625 -9.828125 1.140625 -11.453125 C 1.140625 -13.066406 1.488281 -14.289062 2.1875 -15.125 C 2.894531 -15.957031 3.867188 -16.375 5.109375 -16.375 C 6.367188 -16.375 7.347656 -15.957031 8.046875 -15.125 C 8.753906 -14.289062 9.109375 -13.066406 9.109375 -11.453125 C 9.109375 -9.828125 8.753906 -8.59375 8.046875 -7.75 C 7.347656 -6.914062 6.367188 -6.5 5.109375 -6.5 Z M 7.140625 0 L 5 0 L 14.359375 -16.171875 L 16.5 -16.171875 Z M 5.109375 -8.046875 C 5.796875 -8.046875 6.296875 -8.3125 6.609375 -8.84375 C 6.929688 -9.382812 7.09375 -10.253906 7.09375 -11.453125 C 7.09375 -12.617188 6.929688 -13.46875 6.609375 -14 C 6.296875 -14.539062 5.796875 -14.8125 5.109375 -14.8125 C 4.441406 -14.8125 3.945312 -14.539062 3.625 -14 C 3.3125 -13.46875 3.15625 -12.617188 3.15625 -11.453125 C 3.15625 -10.253906 3.3125 -9.382812 3.625 -8.84375 C 3.945312 -8.3125 4.441406 -8.046875 5.109375 -8.046875 Z M 16.375 0.15625 C 15.125 0.15625 14.144531 -0.257812 13.4375 -1.09375 C 12.726562 -1.9375 12.375 -3.171875 12.375 -4.796875 C 12.375 -6.410156 12.726562 -7.632812 13.4375 -8.46875 C 14.144531 -9.300781 15.125 -9.71875 16.375 -9.71875 C 17.632812 -9.71875 18.613281 -9.300781 19.3125 -8.46875 C 20.007812 -7.632812 20.359375 -6.410156 20.359375 -4.796875 C 20.359375 -3.171875 20.007812 -1.9375 19.3125 -1.09375 C 18.613281 -0.257812 17.632812 0.15625 16.375 0.15625 Z M 16.375 -1.40625 C 17.0625 -1.40625 17.5625 -1.671875 17.875 -2.203125 C 18.195312 -2.742188 18.359375 -3.609375 18.359375 -4.796875 C 18.359375 -5.960938 18.191406 -6.8125 17.859375 -7.34375 C 17.535156 -7.882812 17.039062 -8.15625 16.375 -8.15625 C 15.695312 -8.15625 15.195312 -7.882812 14.875 -7.34375 C 14.5625 -6.8125 14.40625 -5.960938 14.40625 -4.796875 C 14.40625 -3.609375 14.5625 -2.742188 14.875 -2.203125 C 15.195312 -1.671875 15.695312 -1.40625 16.375 -1.40625 Z M 16.375 -1.40625 "/></g></g></g><g fill="#209485" fill-opacity="1"><g transform="translate(75.025515, 440.919171)"><g><path d="M 5.75 0 L 5.75 -14.21875 L 0.265625 -14.21875 L 0.265625 -16.171875 L 13.578125 -16.171875 L 13.578125 -14.21875 L 8.109375 -14.21875 L 8.109375 0 Z M 5.75 0 "/></g></g></g><g fill="#209485" fill-opacity="1"><g transform="translate(88.879679, 440.919171)"><g><path d="M 11.453125 -5.671875 L 3.265625 -5.671875 C 3.347656 -2.992188 4.566406 -1.65625 6.921875 -1.65625 C 8.242188 -1.65625 9.453125 -2.085938 10.546875 -2.953125 L 11.25 -1.3125 C 10.726562 -0.863281 10.070312 -0.503906 9.28125 -0.234375 C 8.488281 0.0234375 7.691406 0.15625 6.890625 0.15625 C 5.054688 0.15625 3.613281 -0.367188 2.5625 -1.421875 C 1.519531 -2.472656 1 -3.914062 1 -5.75 C 1 -6.914062 1.226562 -7.953125 1.6875 -8.859375 C 2.15625 -9.765625 2.804688 -10.46875 3.640625 -10.96875 C 4.472656 -11.46875 5.414062 -11.71875 6.46875 -11.71875 C 8.019531 -11.71875 9.238281 -11.21875 10.125 -10.21875 C 11.007812 -9.21875 11.453125 -7.832031 11.453125 -6.0625 Z M 6.515625 -10.015625 C 5.648438 -10.015625 4.945312 -9.753906 4.40625 -9.234375 C 3.863281 -8.722656 3.515625 -7.992188 3.359375 -7.046875 L 9.421875 -7.046875 C 9.335938 -8.015625 9.046875 -8.75 8.546875 -9.25 C 8.046875 -9.757812 7.367188 -10.015625 6.515625 -10.015625 Z M 6.515625 -10.015625 "/></g></g></g><g fill="#209485" fill-opacity="1"><g transform="translate(101.280291, 440.919171)"><g><path d="M 5.671875 0.15625 C 3.679688 0.15625 2.109375 -0.328125 0.953125 -1.296875 L 1.640625 -2.953125 C 2.835938 -2.046875 4.207031 -1.59375 5.75 -1.59375 C 6.53125 -1.59375 7.125 -1.722656 7.53125 -1.984375 C 7.945312 -2.253906 8.15625 -2.628906 8.15625 -3.109375 C 8.15625 -3.515625 8.015625 -3.835938 7.734375 -4.078125 C 7.453125 -4.316406 6.976562 -4.519531 6.3125 -4.6875 L 4.40625 -5.140625 C 3.40625 -5.347656 2.644531 -5.71875 2.125 -6.25 C 1.601562 -6.789062 1.34375 -7.460938 1.34375 -8.265625 C 1.34375 -9.296875 1.753906 -10.128906 2.578125 -10.765625 C 3.398438 -11.398438 4.492188 -11.71875 5.859375 -11.71875 C 6.679688 -11.71875 7.457031 -11.585938 8.1875 -11.328125 C 8.925781 -11.078125 9.550781 -10.71875 10.0625 -10.25 L 9.359375 -8.640625 C 8.253906 -9.515625 7.085938 -9.953125 5.859375 -9.953125 C 5.117188 -9.953125 4.539062 -9.8125 4.125 -9.53125 C 3.71875 -9.25 3.515625 -8.859375 3.515625 -8.359375 C 3.515625 -7.960938 3.644531 -7.644531 3.90625 -7.40625 C 4.164062 -7.164062 4.578125 -6.976562 5.140625 -6.84375 L 7.09375 -6.359375 C 8.175781 -6.117188 8.976562 -5.738281 9.5 -5.21875 C 10.03125 -4.695312 10.296875 -4.019531 10.296875 -3.1875 C 10.296875 -2.15625 9.878906 -1.335938 9.046875 -0.734375 C 8.222656 -0.140625 7.097656 0.15625 5.671875 0.15625 Z M 5.671875 0.15625 "/></g></g></g><g fill="#209485" fill-opacity="1"><g transform="translate(112.590734, 440.919171)"><g><path d="M 4.65625 -9.671875 L 4.65625 -3.9375 C 4.65625 -3.144531 4.820312 -2.582031 5.15625 -2.25 C 5.5 -1.925781 5.976562 -1.765625 6.59375 -1.765625 C 6.976562 -1.765625 7.378906 -1.828125 7.796875 -1.953125 L 7.796875 -0.09375 C 7.296875 0.0703125 6.726562 0.15625 6.09375 0.15625 C 4.90625 0.15625 3.984375 -0.175781 3.328125 -0.84375 C 2.679688 -1.507812 2.359375 -2.476562 2.359375 -3.75 L 2.359375 -9.671875 L 0.140625 -9.671875 L 0.140625 -11.453125 L 2.359375 -11.453125 L 2.359375 -14.3125 L 4.65625 -15.109375 L 4.65625 -11.453125 L 7.8125 -11.453125 L 7.8125 -9.671875 Z M 4.65625 -9.671875 "/></g></g></g><g fill="#209485" fill-opacity="1"><g transform="translate(120.835096, 440.919171)"><g><path d="M 12.15625 -16.71875 L 12.15625 0 L 9.875 0 L 9.875 -1.953125 C 9.539062 -1.273438 9.046875 -0.753906 8.390625 -0.390625 C 7.734375 -0.0234375 6.96875 0.15625 6.09375 0.15625 C 5.101562 0.15625 4.222656 -0.09375 3.453125 -0.59375 C 2.679688 -1.09375 2.078125 -1.789062 1.640625 -2.6875 C 1.210938 -3.59375 1 -4.632812 1 -5.8125 C 1 -7 1.207031 -8.035156 1.625 -8.921875 C 2.050781 -9.816406 2.644531 -10.503906 3.40625 -10.984375 C 4.175781 -11.472656 5.070312 -11.71875 6.09375 -11.71875 C 6.957031 -11.71875 7.71875 -11.535156 8.375 -11.171875 C 9.03125 -10.804688 9.523438 -10.289062 9.859375 -9.625 L 9.859375 -16.71875 Z M 6.609375 -1.65625 C 7.648438 -1.65625 8.453125 -2.015625 9.015625 -2.734375 C 9.585938 -3.453125 9.875 -4.460938 9.875 -5.765625 C 9.875 -7.066406 9.585938 -8.078125 9.015625 -8.796875 C 8.453125 -9.515625 7.660156 -9.875 6.640625 -9.875 C 5.585938 -9.875 4.769531 -9.519531 4.1875 -8.8125 C 3.601562 -8.101562 3.3125 -7.101562 3.3125 -5.8125 C 3.3125 -4.507812 3.601562 -3.488281 4.1875 -2.75 C 4.769531 -2.019531 5.578125 -1.65625 6.609375 -1.65625 Z M 6.609375 -1.65625 "/></g></g></g><g fill="#209485" fill-opacity="1"><g transform="translate(134.666547, 440.919171)"><g><path d="M 12.15625 -11.453125 L 12.15625 0 L 9.875 0 L 9.875 -1.953125 C 9.539062 -1.273438 9.046875 -0.753906 8.390625 -0.390625 C 7.734375 -0.0234375 6.96875 0.15625 6.09375 0.15625 C 5.070312 0.15625 4.175781 -0.0820312 3.40625 -0.5625 C 2.644531 -1.050781 2.050781 -1.738281 1.625 -2.625 C 1.207031 -3.507812 1 -4.539062 1 -5.71875 C 1 -6.90625 1.210938 -7.953125 1.640625 -8.859375 C 2.078125 -9.765625 2.679688 -10.46875 3.453125 -10.96875 C 4.222656 -11.46875 5.101562 -11.71875 6.09375 -11.71875 C 6.96875 -11.71875 7.726562 -11.53125 8.375 -11.15625 C 9.03125 -10.789062 9.53125 -10.269531 9.875 -9.59375 L 9.875 -11.453125 Z M 6.640625 -1.65625 C 7.660156 -1.65625 8.453125 -2.015625 9.015625 -2.734375 C 9.585938 -3.453125 9.875 -4.460938 9.875 -5.765625 C 9.875 -7.085938 9.585938 -8.101562 9.015625 -8.8125 C 8.453125 -9.519531 7.648438 -9.875 6.609375 -9.875 C 5.578125 -9.875 4.769531 -9.503906 4.1875 -8.765625 C 3.601562 -8.035156 3.3125 -7.019531 3.3125 -5.71875 C 3.3125 -4.4375 3.601562 -3.4375 4.1875 -2.71875 C 4.769531 -2.007812 5.585938 -1.65625 6.640625 -1.65625 Z M 6.640625 -1.65625 "/></g></g></g><g fill="#209485" fill-opacity="1"><g transform="translate(148.497998, 440.919171)"><g><path d="M 4.65625 -9.671875 L 4.65625 -3.9375 C 4.65625 -3.144531 4.820312 -2.582031 5.15625 -2.25 C 5.5 -1.925781 5.976562 -1.765625 6.59375 -1.765625 C 6.976562 -1.765625 7.378906 -1.828125 7.796875 -1.953125 L 7.796875 -0.09375 C 7.296875 0.0703125 6.726562 0.15625 6.09375 0.15625 C 4.90625 0.15625 3.984375 -0.175781 3.328125 -0.84375 C 2.679688 -1.507812 2.359375 -2.476562 2.359375 -3.75 L 2.359375 -9.671875 L 0.140625 -9.671875 L 0.140625 -11.453125 L 2.359375 -11.453125 L 2.359375 -14.3125 L 4.65625 -15.109375 L 4.65625 -11.453125 L 7.8125 -11.453125 L 7.8125 -9.671875 Z M 4.65625 -9.671875 "/></g></g></g><g fill="#209485" fill-opacity="1"><g transform="translate(156.74236, 440.919171)"><g><path d="M 11.453125 -5.671875 L 3.265625 -5.671875 C 3.347656 -2.992188 4.566406 -1.65625 6.921875 -1.65625 C 8.242188 -1.65625 9.453125 -2.085938 10.546875 -2.953125 L 11.25 -1.3125 C 10.726562 -0.863281 10.070312 -0.503906 9.28125 -0.234375 C 8.488281 0.0234375 7.691406 0.15625 6.890625 0.15625 C 5.054688 0.15625 3.613281 -0.367188 2.5625 -1.421875 C 1.519531 -2.472656 1 -3.914062 1 -5.75 C 1 -6.914062 1.226562 -7.953125 1.6875 -8.859375 C 2.15625 -9.765625 2.804688 -10.46875 3.640625 -10.96875 C 4.472656 -11.46875 5.414062 -11.71875 6.46875 -11.71875 C 8.019531 -11.71875 9.238281 -11.21875 10.125 -10.21875 C 11.007812 -9.21875 11.453125 -7.832031 11.453125 -6.0625 Z M 6.515625 -10.015625 C 5.648438 -10.015625 4.945312 -9.753906 4.40625 -9.234375 C 3.863281 -8.722656 3.515625 -7.992188 3.359375 -7.046875 L 9.421875 -7.046875 C 9.335938 -8.015625 9.046875 -8.75 8.546875 -9.25 C 8.046875 -9.757812 7.367188 -10.015625 6.515625 -10.015625 Z M 6.515625 -10.015625 "/></g></g></g><g fill="#209485" fill-opacity="1"><g transform="translate(169.142972, 440.919171)"><g><path d="M 7.765625 -11.71875 C 10.503906 -11.71875 11.875 -10.191406 11.875 -7.140625 L 11.875 0 L 9.59375 0 L 9.59375 -7 C 9.59375 -8 9.394531 -8.722656 9 -9.171875 C 8.613281 -9.628906 8 -9.859375 7.15625 -9.859375 C 6.1875 -9.859375 5.410156 -9.554688 4.828125 -8.953125 C 4.242188 -8.347656 3.953125 -7.535156 3.953125 -6.515625 L 3.953125 0 L 1.6875 0 L 1.6875 -8.21875 C 1.6875 -9.414062 1.625 -10.492188 1.5 -11.453125 L 3.640625 -11.453125 L 3.84375 -9.46875 C 4.207031 -10.195312 4.734375 -10.753906 5.421875 -11.140625 C 6.109375 -11.523438 6.890625 -11.71875 7.765625 -11.71875 Z M 7.765625 -11.71875 "/></g></g></g><g fill="#209485" fill-opacity="1"><g transform="translate(169.886114, 150.211011)"><g><path d="M 12.375 -1.9375 L 12.375 0 L 1.765625 0 L 1.765625 -1.75 L 7.34375 -7.859375 C 8.050781 -8.648438 8.566406 -9.363281 8.890625 -10 C 9.210938 -10.644531 9.375 -11.285156 9.375 -11.921875 C 9.375 -12.742188 9.140625 -13.367188 8.671875 -13.796875 C 8.203125 -14.234375 7.523438 -14.453125 6.640625 -14.453125 C 5.140625 -14.453125 3.640625 -13.859375 2.140625 -12.671875 L 1.296875 -14.40625 C 1.929688 -15 2.738281 -15.472656 3.71875 -15.828125 C 4.707031 -16.179688 5.703125 -16.359375 6.703125 -16.359375 C 8.242188 -16.359375 9.460938 -15.972656 10.359375 -15.203125 C 11.265625 -14.429688 11.71875 -13.382812 11.71875 -12.0625 C 11.71875 -11.125 11.515625 -10.234375 11.109375 -9.390625 C 10.703125 -8.554688 10.019531 -7.625 9.0625 -6.59375 L 4.75 -1.9375 Z M 12.375 -1.9375 "/></g></g></g><g fill="#209485" fill-opacity="1"><g transform="translate(183.513161, 150.211011)"><g><path d="M 6.8125 0.1875 C 4.9375 0.1875 3.503906 -0.515625 2.515625 -1.921875 C 1.535156 -3.335938 1.046875 -5.394531 1.046875 -8.09375 C 1.046875 -10.78125 1.535156 -12.828125 2.515625 -14.234375 C 3.503906 -15.648438 4.9375 -16.359375 6.8125 -16.359375 C 8.6875 -16.359375 10.117188 -15.65625 11.109375 -14.25 C 12.097656 -12.851562 12.59375 -10.804688 12.59375 -8.109375 C 12.59375 -5.398438 12.097656 -3.335938 11.109375 -1.921875 C 10.117188 -0.515625 8.6875 0.1875 6.8125 0.1875 Z M 6.8125 -1.703125 C 7.976562 -1.703125 8.835938 -2.21875 9.390625 -3.25 C 9.941406 -4.289062 10.21875 -5.910156 10.21875 -8.109375 C 10.21875 -10.304688 9.945312 -11.910156 9.40625 -12.921875 C 8.863281 -13.941406 8 -14.453125 6.8125 -14.453125 C 5.644531 -14.453125 4.785156 -13.9375 4.234375 -12.90625 C 3.679688 -11.882812 3.40625 -10.285156 3.40625 -8.109375 C 3.40625 -5.910156 3.679688 -4.289062 4.234375 -3.25 C 4.785156 -2.21875 5.644531 -1.703125 6.8125 -1.703125 Z M 6.8125 -1.703125 "/></g></g></g><g fill="#209485" fill-opacity="1"><g transform="translate(197.140209, 150.211011)"><g><path d="M 5.109375 -6.5 C 3.867188 -6.5 2.894531 -6.914062 2.1875 -7.75 C 1.488281 -8.59375 1.140625 -9.828125 1.140625 -11.453125 C 1.140625 -13.066406 1.488281 -14.289062 2.1875 -15.125 C 2.894531 -15.957031 3.867188 -16.375 5.109375 -16.375 C 6.367188 -16.375 7.347656 -15.957031 8.046875 -15.125 C 8.753906 -14.289062 9.109375 -13.066406 9.109375 -11.453125 C 9.109375 -9.828125 8.753906 -8.59375 8.046875 -7.75 C 7.347656 -6.914062 6.367188 -6.5 5.109375 -6.5 Z M 7.140625 0 L 5 0 L 14.359375 -16.171875 L 16.5 -16.171875 Z M 5.109375 -8.046875 C 5.796875 -8.046875 6.296875 -8.3125 6.609375 -8.84375 C 6.929688 -9.382812 7.09375 -10.253906 7.09375 -11.453125 C 7.09375 -12.617188 6.929688 -13.46875 6.609375 -14 C 6.296875 -14.539062 5.796875 -14.8125 5.109375 -14.8125 C 4.441406 -14.8125 3.945312 -14.539062 3.625 -14 C 3.3125 -13.46875 3.15625 -12.617188 3.15625 -11.453125 C 3.15625 -10.253906 3.3125 -9.382812 3.625 -8.84375 C 3.945312 -8.3125 4.441406 -8.046875 5.109375 -8.046875 Z M 16.375 0.15625 C 15.125 0.15625 14.144531 -0.257812 13.4375 -1.09375 C 12.726562 -1.9375 12.375 -3.171875 12.375 -4.796875 C 12.375 -6.410156 12.726562 -7.632812 13.4375 -8.46875 C 14.144531 -9.300781 15.125 -9.71875 16.375 -9.71875 C 17.632812 -9.71875 18.613281 -9.300781 19.3125 -8.46875 C 20.007812 -7.632812 20.359375 -6.410156 20.359375 -4.796875 C 20.359375 -3.171875 20.007812 -1.9375 19.3125 -1.09375 C 18.613281 -0.257812 17.632812 0.15625 16.375 0.15625 Z M 16.375 -1.40625 C 17.0625 -1.40625 17.5625 -1.671875 17.875 -2.203125 C 18.195312 -2.742188 18.359375 -3.609375 18.359375 -4.796875 C 18.359375 -5.960938 18.191406 -6.8125 17.859375 -7.34375 C 17.535156 -7.882812 17.039062 -8.15625 16.375 -8.15625 C 15.695312 -8.15625 15.195312 -7.882812 14.875 -7.34375 C 14.5625 -6.8125 14.40625 -5.960938 14.40625 -4.796875 C 14.40625 -3.609375 14.5625 -2.742188 14.875 -2.203125 C 15.195312 -1.671875 15.695312 -1.40625 16.375 -1.40625 Z M 16.375 -1.40625 "/></g></g></g><g fill="#209485" fill-opacity="1"><g transform="translate(23.261785, 177.111986)"><g><path d="M 13.765625 -16.171875 L 16.171875 -16.171875 L 9.046875 0 L 7.0625 0 L -0.0625 -16.171875 L 2.390625 -16.171875 L 8.0625 -2.953125 Z M 13.765625 -16.171875 "/></g></g></g><g fill="#209485" fill-opacity="1"><g transform="translate(39.341702, 177.111986)"><g><path d="M 12.15625 -11.453125 L 12.15625 0 L 9.875 0 L 9.875 -1.953125 C 9.539062 -1.273438 9.046875 -0.753906 8.390625 -0.390625 C 7.734375 -0.0234375 6.96875 0.15625 6.09375 0.15625 C 5.070312 0.15625 4.175781 -0.0820312 3.40625 -0.5625 C 2.644531 -1.050781 2.050781 -1.738281 1.625 -2.625 C 1.207031 -3.507812 1 -4.539062 1 -5.71875 C 1 -6.90625 1.210938 -7.953125 1.640625 -8.859375 C 2.078125 -9.765625 2.679688 -10.46875 3.453125 -10.96875 C 4.222656 -11.46875 5.101562 -11.71875 6.09375 -11.71875 C 6.96875 -11.71875 7.726562 -11.53125 8.375 -11.15625 C 9.03125 -10.789062 9.53125 -10.269531 9.875 -9.59375 L 9.875 -11.453125 Z M 6.640625 -1.65625 C 7.660156 -1.65625 8.453125 -2.015625 9.015625 -2.734375 C 9.585938 -3.453125 9.875 -4.460938 9.875 -5.765625 C 9.875 -7.085938 9.585938 -8.101562 9.015625 -8.8125 C 8.453125 -9.519531 7.648438 -9.875 6.609375 -9.875 C 5.578125 -9.875 4.769531 -9.503906 4.1875 -8.765625 C 3.601562 -8.035156 3.3125 -7.019531 3.3125 -5.71875 C 3.3125 -4.4375 3.601562 -3.4375 4.1875 -2.71875 C 4.769531 -2.007812 5.585938 -1.65625 6.640625 -1.65625 Z M 6.640625 -1.65625 "/></g></g></g><g fill="#209485" fill-opacity="1"><g transform="translate(53.173153, 177.111986)"><g><path d="M 1.6875 0 L 1.6875 -16.71875 L 3.953125 -16.71875 L 3.953125 0 Z M 1.6875 0 "/></g></g></g><g fill="#209485" fill-opacity="1"><g transform="translate(58.805668, 177.111986)"><g><path d="M 1.6875 0 L 1.6875 -11.453125 L 3.953125 -11.453125 L 3.953125 0 Z M 1.46875 -16.453125 L 4.125 -16.453125 L 4.125 -14.046875 L 1.46875 -14.046875 Z M 1.46875 -16.453125 "/></g></g></g><g fill="#209485" fill-opacity="1"><g transform="translate(64.438183, 177.111986)"><g><path d="M 12.15625 -16.71875 L 12.15625 0 L 9.875 0 L 9.875 -1.953125 C 9.539062 -1.273438 9.046875 -0.753906 8.390625 -0.390625 C 7.734375 -0.0234375 6.96875 0.15625 6.09375 0.15625 C 5.101562 0.15625 4.222656 -0.09375 3.453125 -0.59375 C 2.679688 -1.09375 2.078125 -1.789062 1.640625 -2.6875 C 1.210938 -3.59375 1 -4.632812 1 -5.8125 C 1 -7 1.207031 -8.035156 1.625 -8.921875 C 2.050781 -9.816406 2.644531 -10.503906 3.40625 -10.984375 C 4.175781 -11.472656 5.070312 -11.71875 6.09375 -11.71875 C 6.957031 -11.71875 7.71875 -11.535156 8.375 -11.171875 C 9.03125 -10.804688 9.523438 -10.289062 9.859375 -9.625 L 9.859375 -16.71875 Z M 6.609375 -1.65625 C 7.648438 -1.65625 8.453125 -2.015625 9.015625 -2.734375 C 9.585938 -3.453125 9.875 -4.460938 9.875 -5.765625 C 9.875 -7.066406 9.585938 -8.078125 9.015625 -8.796875 C 8.453125 -9.515625 7.660156 -9.875 6.640625 -9.875 C 5.585938 -9.875 4.769531 -9.519531 4.1875 -8.8125 C 3.601562 -8.101562 3.3125 -7.101562 3.3125 -5.8125 C 3.3125 -4.507812 3.601562 -3.488281 4.1875 -2.75 C 4.769531 -2.019531 5.578125 -1.65625 6.609375 -1.65625 Z M 6.609375 -1.65625 "/></g></g></g><g fill="#209485" fill-opacity="1"><g transform="translate(78.269634, 177.111986)"><g><path d="M 1.6875 0 L 1.6875 -11.453125 L 3.953125 -11.453125 L 3.953125 0 Z M 1.46875 -16.453125 L 4.125 -16.453125 L 4.125 -14.046875 L 1.46875 -14.046875 Z M 1.46875 -16.453125 "/></g></g></g><g fill="#209485" fill-opacity="1"><g transform="translate(83.902149, 177.111986)"><g><path d="M 11.453125 -5.671875 L 3.265625 -5.671875 C 3.347656 -2.992188 4.566406 -1.65625 6.921875 -1.65625 C 8.242188 -1.65625 9.453125 -2.085938 10.546875 -2.953125 L 11.25 -1.3125 C 10.726562 -0.863281 10.070312 -0.503906 9.28125 -0.234375 C 8.488281 0.0234375 7.691406 0.15625 6.890625 0.15625 C 5.054688 0.15625 3.613281 -0.367188 2.5625 -1.421875 C 1.519531 -2.472656 1 -3.914062 1 -5.75 C 1 -6.914062 1.226562 -7.953125 1.6875 -8.859375 C 2.15625 -9.765625 2.804688 -10.46875 3.640625 -10.96875 C 4.472656 -11.46875 5.414062 -11.71875 6.46875 -11.71875 C 8.019531 -11.71875 9.238281 -11.21875 10.125 -10.21875 C 11.007812 -9.21875 11.453125 -7.832031 11.453125 -6.0625 Z M 6.515625 -10.015625 C 5.648438 -10.015625 4.945312 -9.753906 4.40625 -9.234375 C 3.863281 -8.722656 3.515625 -7.992188 3.359375 -7.046875 L 9.421875 -7.046875 C 9.335938 -8.015625 9.046875 -8.75 8.546875 -9.25 C 8.046875 -9.757812 7.367188 -10.015625 6.515625 -10.015625 Z M 6.515625 -10.015625 "/></g></g></g><g fill="#209485" fill-opacity="1"><g transform="translate(96.302762, 177.111986)"><g><path d="M 7.390625 -11.71875 C 7.734375 -11.71875 8.09375 -11.664062 8.46875 -11.5625 L 8.421875 -9.46875 C 8.015625 -9.625 7.570312 -9.703125 7.09375 -9.703125 C 6.039062 -9.703125 5.253906 -9.382812 4.734375 -8.75 C 4.210938 -8.125 3.953125 -7.335938 3.953125 -6.390625 L 3.953125 0 L 1.6875 0 L 1.6875 -8.21875 C 1.6875 -9.414062 1.625 -10.492188 1.5 -11.453125 L 3.640625 -11.453125 L 3.84375 -9.375 C 4.144531 -10.132812 4.613281 -10.710938 5.25 -11.109375 C 5.882812 -11.515625 6.597656 -11.71875 7.390625 -11.71875 Z M 7.390625 -11.71875 "/></g></g></g><g fill="#209485" fill-opacity="1"><g transform="translate(104.84238, 177.111986)"><g><path d="M 11.625 -11.453125 L 11.625 0 L 9.40625 0 L 9.40625 -1.90625 C 9.039062 -1.238281 8.539062 -0.726562 7.90625 -0.375 C 7.269531 -0.0195312 6.550781 0.15625 5.75 0.15625 C 2.988281 0.15625 1.609375 -1.375 1.609375 -4.4375 L 1.609375 -11.453125 L 3.890625 -11.453125 L 3.890625 -4.453125 C 3.890625 -3.515625 4.082031 -2.820312 4.46875 -2.375 C 4.851562 -1.925781 5.4375 -1.703125 6.21875 -1.703125 C 7.164062 -1.703125 7.921875 -2.003906 8.484375 -2.609375 C 9.054688 -3.210938 9.34375 -4.015625 9.34375 -5.015625 L 9.34375 -11.453125 Z M 11.625 -11.453125 "/></g></g></g><g fill="#209485" fill-opacity="1"><g transform="translate(118.151458, 177.111986)"><g><path d="M 7.765625 -11.71875 C 10.503906 -11.71875 11.875 -10.191406 11.875 -7.140625 L 11.875 0 L 9.59375 0 L 9.59375 -7 C 9.59375 -8 9.394531 -8.722656 9 -9.171875 C 8.613281 -9.628906 8 -9.859375 7.15625 -9.859375 C 6.1875 -9.859375 5.410156 -9.554688 4.828125 -8.953125 C 4.242188 -8.347656 3.953125 -7.535156 3.953125 -6.515625 L 3.953125 0 L 1.6875 0 L 1.6875 -8.21875 C 1.6875 -9.414062 1.625 -10.492188 1.5 -11.453125 L 3.640625 -11.453125 L 3.84375 -9.46875 C 4.207031 -10.195312 4.734375 -10.753906 5.421875 -11.140625 C 6.109375 -11.523438 6.890625 -11.71875 7.765625 -11.71875 Z M 7.765625 -11.71875 "/></g></g></g><g fill="#209485" fill-opacity="1"><g transform="translate(131.619515, 177.111986)"><g><path d="M 12.25 -11.453125 L 12.25 -0.203125 C 12.25 1.535156 11.789062 2.847656 10.875 3.734375 C 9.957031 4.617188 8.597656 5.0625 6.796875 5.0625 C 5.054688 5.0625 3.53125 4.6875 2.21875 3.9375 L 2.609375 2.140625 C 3.328125 2.515625 4.015625 2.789062 4.671875 2.96875 C 5.328125 3.15625 6.023438 3.25 6.765625 3.25 C 8.898438 3.25 9.96875 2.160156 9.96875 -0.015625 L 9.96875 -2.5 C 9.625 -1.832031 9.117188 -1.304688 8.453125 -0.921875 C 7.785156 -0.535156 7.015625 -0.34375 6.140625 -0.34375 C 5.140625 -0.34375 4.25 -0.578125 3.46875 -1.046875 C 2.6875 -1.515625 2.078125 -2.179688 1.640625 -3.046875 C 1.210938 -3.910156 1 -4.898438 1 -6.015625 C 1 -7.140625 1.210938 -8.132812 1.640625 -9 C 2.078125 -9.863281 2.6875 -10.53125 3.46875 -11 C 4.25 -11.476562 5.140625 -11.71875 6.140625 -11.71875 C 7.015625 -11.71875 7.785156 -11.53125 8.453125 -11.15625 C 9.117188 -10.789062 9.625 -10.269531 9.96875 -9.59375 L 9.96875 -11.453125 Z M 6.65625 -2.1875 C 7.6875 -2.1875 8.492188 -2.523438 9.078125 -3.203125 C 9.671875 -3.878906 9.96875 -4.816406 9.96875 -6.015625 C 9.96875 -7.210938 9.675781 -8.15625 9.09375 -8.84375 C 8.507812 -9.53125 7.695312 -9.875 6.65625 -9.875 C 5.625 -9.875 4.804688 -9.53125 4.203125 -8.84375 C 3.609375 -8.15625 3.3125 -7.210938 3.3125 -6.015625 C 3.3125 -4.835938 3.609375 -3.90625 4.203125 -3.21875 C 4.804688 -2.53125 5.625 -2.1875 6.65625 -2.1875 Z M 6.65625 -2.1875 "/></g></g></g><g fill="#209485" fill-opacity="1"><g transform="translate(145.541818, 177.111986)"><g><path d="M 5.671875 0.15625 C 3.679688 0.15625 2.109375 -0.328125 0.953125 -1.296875 L 1.640625 -2.953125 C 2.835938 -2.046875 4.207031 -1.59375 5.75 -1.59375 C 6.53125 -1.59375 7.125 -1.722656 7.53125 -1.984375 C 7.945312 -2.253906 8.15625 -2.628906 8.15625 -3.109375 C 8.15625 -3.515625 8.015625 -3.835938 7.734375 -4.078125 C 7.453125 -4.316406 6.976562 -4.519531 6.3125 -4.6875 L 4.40625 -5.140625 C 3.40625 -5.347656 2.644531 -5.71875 2.125 -6.25 C 1.601562 -6.789062 1.34375 -7.460938 1.34375 -8.265625 C 1.34375 -9.296875 1.753906 -10.128906 2.578125 -10.765625 C 3.398438 -11.398438 4.492188 -11.71875 5.859375 -11.71875 C 6.679688 -11.71875 7.457031 -11.585938 8.1875 -11.328125 C 8.925781 -11.078125 9.550781 -10.71875 10.0625 -10.25 L 9.359375 -8.640625 C 8.253906 -9.515625 7.085938 -9.953125 5.859375 -9.953125 C 5.117188 -9.953125 4.539062 -9.8125 4.125 -9.53125 C 3.71875 -9.25 3.515625 -8.859375 3.515625 -8.359375 C 3.515625 -7.960938 3.644531 -7.644531 3.90625 -7.40625 C 4.164062 -7.164062 4.578125 -6.976562 5.140625 -6.84375 L 7.09375 -6.359375 C 8.175781 -6.117188 8.976562 -5.738281 9.5 -5.21875 C 10.03125 -4.695312 10.296875 -4.019531 10.296875 -3.1875 C 10.296875 -2.15625 9.878906 -1.335938 9.046875 -0.734375 C 8.222656 -0.140625 7.097656 0.15625 5.671875 0.15625 Z M 5.671875 0.15625 "/></g></g></g><g fill="#209485" fill-opacity="1"><g transform="translate(156.85226, 177.111986)"><g><path d="M 12.15625 -16.71875 L 12.15625 0 L 9.875 0 L 9.875 -1.953125 C 9.539062 -1.273438 9.046875 -0.753906 8.390625 -0.390625 C 7.734375 -0.0234375 6.96875 0.15625 6.09375 0.15625 C 5.101562 0.15625 4.222656 -0.09375 3.453125 -0.59375 C 2.679688 -1.09375 2.078125 -1.789062 1.640625 -2.6875 C 1.210938 -3.59375 1 -4.632812 1 -5.8125 C 1 -7 1.207031 -8.035156 1.625 -8.921875 C 2.050781 -9.816406 2.644531 -10.503906 3.40625 -10.984375 C 4.175781 -11.472656 5.070312 -11.71875 6.09375 -11.71875 C 6.957031 -11.71875 7.71875 -11.535156 8.375 -11.171875 C 9.03125 -10.804688 9.523438 -10.289062 9.859375 -9.625 L 9.859375 -16.71875 Z M 6.609375 -1.65625 C 7.648438 -1.65625 8.453125 -2.015625 9.015625 -2.734375 C 9.585938 -3.453125 9.875 -4.460938 9.875 -5.765625 C 9.875 -7.066406 9.585938 -8.078125 9.015625 -8.796875 C 8.453125 -9.515625 7.660156 -9.875 6.640625 -9.875 C 5.585938 -9.875 4.769531 -9.519531 4.1875 -8.8125 C 3.601562 -8.101562 3.3125 -7.101562 3.3125 -5.8125 C 3.3125 -4.507812 3.601562 -3.488281 4.1875 -2.75 C 4.769531 -2.019531 5.578125 -1.65625 6.609375 -1.65625 Z M 6.609375 -1.65625 "/></g></g></g><g fill="#209485" fill-opacity="1"><g transform="translate(170.683711, 177.111986)"><g><path d="M 12.15625 -11.453125 L 12.15625 0 L 9.875 0 L 9.875 -1.953125 C 9.539062 -1.273438 9.046875 -0.753906 8.390625 -0.390625 C 7.734375 -0.0234375 6.96875 0.15625 6.09375 0.15625 C 5.070312 0.15625 4.175781 -0.0820312 3.40625 -0.5625 C 2.644531 -1.050781 2.050781 -1.738281 1.625 -2.625 C 1.207031 -3.507812 1 -4.539062 1 -5.71875 C 1 -6.90625 1.210938 -7.953125 1.640625 -8.859375 C 2.078125 -9.765625 2.679688 -10.46875 3.453125 -10.96875 C 4.222656 -11.46875 5.101562 -11.71875 6.09375 -11.71875 C 6.96875 -11.71875 7.726562 -11.53125 8.375 -11.15625 C 9.03125 -10.789062 9.53125 -10.269531 9.875 -9.59375 L 9.875 -11.453125 Z M 6.640625 -1.65625 C 7.660156 -1.65625 8.453125 -2.015625 9.015625 -2.734375 C 9.585938 -3.453125 9.875 -4.460938 9.875 -5.765625 C 9.875 -7.085938 9.585938 -8.101562 9.015625 -8.8125 C 8.453125 -9.519531 7.648438 -9.875 6.609375 -9.875 C 5.578125 -9.875 4.769531 -9.503906 4.1875 -8.765625 C 3.601562 -8.035156 3.3125 -7.019531 3.3125 -5.71875 C 3.3125 -4.4375 3.601562 -3.4375 4.1875 -2.71875 C 4.769531 -2.007812 5.585938 -1.65625 6.640625 -1.65625 Z M 6.640625 -1.65625 "/></g></g></g><g fill="#209485" fill-opacity="1"><g transform="translate(184.515162, 177.111986)"><g><path d="M 4.65625 -9.671875 L 4.65625 -3.9375 C 4.65625 -3.144531 4.820312 -2.582031 5.15625 -2.25 C 5.5 -1.925781 5.976562 -1.765625 6.59375 -1.765625 C 6.976562 -1.765625 7.378906 -1.828125 7.796875 -1.953125 L 7.796875 -0.09375 C 7.296875 0.0703125 6.726562 0.15625 6.09375 0.15625 C 4.90625 0.15625 3.984375 -0.175781 3.328125 -0.84375 C 2.679688 -1.507812 2.359375 -2.476562 2.359375 -3.75 L 2.359375 -9.671875 L 0.140625 -9.671875 L 0.140625 -11.453125 L 2.359375 -11.453125 L 2.359375 -14.3125 L 4.65625 -15.109375 L 4.65625 -11.453125 L 7.8125 -11.453125 L 7.8125 -9.671875 Z M 4.65625 -9.671875 "/></g></g></g><g fill="#209485" fill-opacity="1"><g transform="translate(192.759524, 177.111986)"><g><path d="M 11.453125 -5.671875 L 3.265625 -5.671875 C 3.347656 -2.992188 4.566406 -1.65625 6.921875 -1.65625 C 8.242188 -1.65625 9.453125 -2.085938 10.546875 -2.953125 L 11.25 -1.3125 C 10.726562 -0.863281 10.070312 -0.503906 9.28125 -0.234375 C 8.488281 0.0234375 7.691406 0.15625 6.890625 0.15625 C 5.054688 0.15625 3.613281 -0.367188 2.5625 -1.421875 C 1.519531 -2.472656 1 -3.914062 1 -5.75 C 1 -6.914062 1.226562 -7.953125 1.6875 -8.859375 C 2.15625 -9.765625 2.804688 -10.46875 3.640625 -10.96875 C 4.472656 -11.46875 5.414062 -11.71875 6.46875 -11.71875 C 8.019531 -11.71875 9.238281 -11.21875 10.125 -10.21875 C 11.007812 -9.21875 11.453125 -7.832031 11.453125 -6.0625 Z M 6.515625 -10.015625 C 5.648438 -10.015625 4.945312 -9.753906 4.40625 -9.234375 C 3.863281 -8.722656 3.515625 -7.992188 3.359375 -7.046875 L 9.421875 -7.046875 C 9.335938 -8.015625 9.046875 -8.75 8.546875 -9.25 C 8.046875 -9.757812 7.367188 -10.015625 6.515625 -10.015625 Z M 6.515625 -10.015625 "/></g></g></g><g fill="#209485" fill-opacity="1"><g transform="translate(205.160137, 177.111986)"><g><path d="M 7.765625 -11.71875 C 10.503906 -11.71875 11.875 -10.191406 11.875 -7.140625 L 11.875 0 L 9.59375 0 L 9.59375 -7 C 9.59375 -8 9.394531 -8.722656 9 -9.171875 C 8.613281 -9.628906 8 -9.859375 7.15625 -9.859375 C 6.1875 -9.859375 5.410156 -9.554688 4.828125 -8.953125 C 4.242188 -8.347656 3.953125 -7.535156 3.953125 -6.515625 L 3.953125 0 L 1.6875 0 L 1.6875 -8.21875 C 1.6875 -9.414062 1.625 -10.492188 1.5 -11.453125 L 3.640625 -11.453125 L 3.84375 -9.46875 C 4.207031 -10.195312 4.734375 -10.753906 5.421875 -11.140625 C 6.109375 -11.523438 6.890625 -11.71875 7.765625 -11.71875 Z M 7.765625 -11.71875 "/></g></g></g><g clip-path="url(#9f82242a1f)"><g clip-path="url(#0b7e74805b)"><g clip-path="url(#0f270c5f20)"><path fill="#7e56c2" d="M 576.90625 279.578125 C 596.132812 269.59375 611.898438 269.550781 630.4375 277.117188 C 631.664062 277.617188 633.058594 277.03125 633.554688 275.8125 C 634.050781 274.59375 633.457031 273.199219 632.234375 272.699219 C 612.300781 264.566406 595.355469 264.609375 574.683594 275.339844 C 573.511719 275.949219 573.0625 277.390625 573.675781 278.558594 C 574.289062 279.726562 575.734375 280.183594 576.90625 279.578125 Z M 576.90625 279.578125 " fill-opacity="1" fill-rule="evenodd"/></g></g></g><g clip-path="url(#93623ad7c0)"><g clip-path="url(#459a32499d)"><g clip-path="url(#0a1a5180d2)"><path fill="#7e56c2" d="M 627.289062 273.503906 C 624.644531 274.015625 620.933594 275.1875 617.148438 277.871094 C 616.074219 278.632812 615.824219 280.125 616.589844 281.199219 C 617.359375 282.273438 618.855469 282.527344 619.929688 281.765625 C 625.324219 277.941406 629.65625 278.03125 631.355469 277.898438 C 633 277.769531 633.777344 276.988281 634.054688 276.519531 C 634.417969 275.90625 634.675781 275.003906 634.035156 273.855469 C 633.796875 273.425781 633.121094 272.671875 632.085938 271.617188 C 630.285156 269.78125 627.203125 266.570312 624.398438 261.433594 C 623.769531 260.273438 622.3125 259.839844 621.15625 260.46875 C 619.996094 261.09375 619.566406 262.542969 620.199219 263.703125 C 622.660156 268.210938 625.308594 271.378906 627.289062 273.503906 Z M 627.289062 273.503906 " fill-opacity="1" fill-rule="evenodd"/></g></g></g><g clip-path="url(#091d41c5b0)"><g clip-path="url(#4da10b0156)"><g clip-path="url(#a3da5cd62b)"><path fill="#7e56c2" d="M 231.503906 354.390625 C 210.085938 357.65625 197.324219 366.914062 186.804688 383.949219 C 186.109375 385.074219 184.636719 385.425781 183.515625 384.734375 C 182.398438 384.039062 182.054688 382.5625 182.75 381.4375 C 194.0625 363.121094 207.777344 353.171875 230.804688 349.660156 C 232.105469 349.460938 233.320312 350.359375 233.515625 351.664062 C 233.707031 352.972656 232.808594 354.191406 231.503906 354.390625 Z M 231.503906 354.390625 " fill-opacity="1" fill-rule="evenodd"/></g></g></g><g clip-path="url(#bef9049acf)"><g clip-path="url(#b3431ad63a)"><g clip-path="url(#460a0ea7c6)"><path fill="#7e56c2" d="M 187.21875 379.175781 C 189.660156 378.027344 193.34375 376.792969 197.988281 376.726562 C 199.304688 376.710938 200.382812 377.765625 200.398438 379.089844 C 200.410156 380.410156 199.351562 381.496094 198.035156 381.515625 C 191.421875 381.605469 187.972656 384.226562 186.523438 385.121094 C 185.117188 385.988281 184.03125 385.816406 183.527344 385.597656 C 182.875 385.320312 182.132812 384.738281 181.976562 383.4375 C 181.914062 382.945312 182.015625 381.9375 182.230469 380.480469 C 182.605469 377.933594 183.203125 373.523438 182.441406 367.71875 C 182.269531 366.410156 183.1875 365.203125 184.492188 365.027344 C 185.800781 364.851562 187 365.769531 187.171875 367.078125 C 187.839844 372.167969 187.566406 376.292969 187.21875 379.175781 Z M 187.21875 379.175781 " fill-opacity="1" fill-rule="evenodd"/></g></g></g><g clip-path="url(#bd997984d6)"><g clip-path="url(#038c1c256e)"><g clip-path="url(#5faba9abb3)"><path fill="#7e56c2" d="M 278.679688 174.179688 C 266.214844 156.460938 252.246094 149.15625 232.304688 147.320312 C 230.988281 147.199219 230.019531 146.039062 230.140625 144.726562 C 230.265625 143.417969 231.433594 142.453125 232.75 142.574219 C 254.1875 144.542969 269.207031 152.394531 282.605469 171.445312 C 283.363281 172.523438 283.097656 174.011719 282.015625 174.765625 C 280.929688 175.523438 279.4375 175.261719 278.679688 174.179688 Z M 278.679688 174.179688 " fill-opacity="1" fill-rule="evenodd"/></g></g></g><g clip-path="url(#827a5c03f3)"><g clip-path="url(#484434fae4)"><g clip-path="url(#0e3c259bc8)"><path fill="#7e56c2" d="M 236.765625 145.566406 C 238.878906 147.242188 241.628906 149.992188 243.753906 154.117188 C 244.355469 155.289062 243.890625 156.726562 242.710938 157.328125 C 241.535156 157.925781 240.089844 157.464844 239.488281 156.292969 C 236.464844 150.410156 232.578125 148.492188 231.132812 147.59375 C 229.730469 146.722656 229.402344 145.671875 229.371094 145.125 C 229.332031 144.414062 229.519531 143.492188 230.617188 142.769531 C 231.027344 142.496094 231.972656 142.140625 233.378906 141.679688 C 235.820312 140.882812 240.039062 139.453125 244.894531 136.1875 C 245.988281 135.449219 247.480469 135.734375 248.21875 136.824219 C 248.960938 137.917969 248.671875 139.398438 247.574219 140.136719 C 243.316406 143.003906 239.503906 144.59375 236.765625 145.566406 Z M 236.765625 145.566406 " fill-opacity="1" fill-rule="evenodd"/></g></g></g></svg>